<svg width="50" height="50" viewBox="0 0 50 50" fill="none" xmlns="http://www.w3.org/2000/svg">
<path d="M47.5292 35.3287C46.3959 35.2716 45.5578 35.2382 45.015 35.2287V40.1144C45.5673 40.1049 46.4054 40.0716 47.5292 40.0144V42.8573H39.2292V40.0144C40.3245 40.0716 41.1578 40.1049 41.7292 40.1144V35.2287C41.1578 35.2382 40.3245 35.2716 39.2292 35.3287V32.4858H47.5292V35.3287Z" fill="#3A2C19"/>
<path d="M38.4675 32.4858L37.5246 34.6716C36.696 36.6049 36.0436 38.1525 35.5675 39.3144C35.0913 40.4763 34.6532 41.6573 34.2532 42.8573H29.9817C29.5913 41.6763 29.1579 40.5097 28.6817 39.3573C28.2151 38.1954 27.5865 36.7097 26.796 34.9001C26.6627 34.5954 26.3151 33.7906 25.7532 32.4858H29.7246C30.0103 33.4096 30.4341 34.5954 30.996 36.043C31.4913 37.3192 31.8913 38.4239 32.196 39.3573C32.396 38.7001 32.6341 38.0001 32.9103 37.2573C33.196 36.5049 33.3675 36.0477 33.4246 35.8858C33.977 34.4287 34.3817 33.2954 34.6389 32.4858H38.4675Z" fill="#3A2C19"/>
<path d="M22.7134 42.8573C22.5324 42.3144 22.2896 41.6335 21.9848 40.8144H17.4277L16.7134 42.8573H13.1277L17.1277 32.4858H22.3848L26.4134 42.8573H22.7134ZM21.1705 38.5858C20.8086 37.5858 20.4372 36.5858 20.0563 35.5858L19.7134 34.6573C19.3801 35.5239 18.8896 36.8335 18.242 38.5858H21.1705Z" fill="#3A2C19"/>
<path d="M12.557 32.5C12.4903 34.1095 12.457 35.8333 12.457 37.6714C12.457 39.519 12.4903 41.2476 12.557 42.8571H7.44272L3.98557 35.0571L4.24272 42.8571H0.571289C0.64748 41.0095 0.685575 39.281 0.685575 37.6714C0.685575 36.0714 0.64748 34.3476 0.571289 32.5H5.82843L9.29986 40.5143L9.057 32.5H12.557Z" fill="#3A2C19"/>
<path d="M48.6 20.7645C46.8477 20.6502 45.2477 20.5645 43.8001 20.5073L43.7715 23.5359C43.7715 24.5645 43.9905 25.374 44.4286 25.9645C44.8858 26.5359 45.6858 26.8216 46.8286 26.8216C47.2667 26.8216 47.6858 26.7835 48.0858 26.7073C48.0096 27.4121 47.9715 28.1264 47.9715 28.8502C47.9715 29.193 47.9905 29.974 48.0286 31.193C47.1905 31.3454 46.4858 31.4407 45.9143 31.4788C45.3429 31.5168 44.6 31.5359 43.6858 31.5359C41.4572 31.5359 39.8762 31.0026 38.9429 29.9359C38.0286 28.8502 37.5715 27.3454 37.5715 25.4216L37.6001 20.593C36.7048 20.6311 35.7715 20.6883 34.8 20.7645V15.7073C35.7905 15.7073 36.6286 15.393 37.3143 14.7645C38.0001 14.1359 38.4096 13.3835 38.5429 12.5073H46.3143C45.3429 13.8407 44.2667 14.9073 43.0858 15.7073H48.6V20.7645Z" fill="#FEFCF7"/>
<path d="M29.5529 13.9642C28.3529 13.9642 27.4576 13.669 26.8672 13.0785C26.2957 12.488 26.01 11.7166 26.01 10.7642C26.01 9.83088 26.2957 9.05945 26.8672 8.44993C27.4576 7.84041 28.3529 7.53564 29.5529 7.53564C30.6957 7.53564 31.5719 7.84993 32.1814 8.4785C32.791 9.08803 33.0957 9.84993 33.0957 10.7642C33.0957 11.7166 32.8005 12.488 32.21 13.0785C31.6195 13.669 30.7338 13.9642 29.5529 13.9642ZM26.2386 31.2499C26.3719 28.1833 26.4386 25.6499 26.4386 23.6499C26.4386 21.269 26.3624 18.6023 26.21 15.6499H33.0672C32.9148 18.488 32.8386 21.1547 32.8386 23.6499C32.8386 25.7452 32.9052 28.2785 33.0386 31.2499H26.2386Z" fill="#FEFCF7"/>
<path d="M23.4285 15.8502H7.88568V18.8502C8.85711 18.8692 10.3143 18.8788 12.2571 18.8788C15.6095 18.8788 19.019 18.8216 22.4857 18.7073V24.3073C19.019 24.174 15.3619 24.1073 11.5143 24.1073C9.91425 24.1073 8.70473 24.1168 7.88568 24.1359V31.2502H1.14282C1.2952 27.5549 1.37139 24.0978 1.37139 20.8788C1.37139 17.6597 1.2952 14.2026 1.14282 10.5073H23.4285V15.8502Z" fill="#FEFCF7"/>
</svg>
