<svg width="24" height="24" viewBox="0 0 24 24" fill="none" xmlns="http://www.w3.org/2000/svg">
<path d="M18.4631 13.3987L17.7951 13.0576L17.7845 13.0785L17.7751 13.1L18.4631 13.3987ZM6.63389 14.9836L7.23227 14.5315L7.21169 14.5042L7.18871 14.4789L6.63389 14.9836ZM10.3124 19.8518L10.9214 19.4141L10.9162 19.4068L10.9107 19.3996L10.3124 19.8518ZM13.8922 19.8513L14.5014 20.2888L14.5014 20.2888L13.8922 19.8513ZM17.4783 14.8578L16.9119 14.366L16.8893 14.3922L16.8691 14.4203L17.4783 14.8578ZM18.2677 13.7562L17.6441 13.3395L17.6314 13.3584L17.62 13.3781L18.2677 13.7562ZM19.2523 10.1054H18.5023C18.5023 11.1699 18.247 12.1725 17.7951 13.0576L18.4631 13.3987L19.1311 13.7398C19.6883 12.6484 20.0023 11.4124 20.0023 10.1054H19.2523ZM12.0002 2.85327V3.60327C15.5912 3.60327 18.5023 6.51437 18.5023 10.1054H19.2523H20.0023C20.0023 5.68594 16.4196 2.10327 12.0002 2.10327V2.85327ZM4.74805 10.1054H5.49805C5.49805 6.51437 8.40914 3.60327 12.0002 3.60327V2.85327V2.10327C7.58071 2.10327 3.99805 5.68594 3.99805 10.1054H4.74805ZM6.63389 14.9836L7.18871 14.4789C6.13772 13.3235 5.49805 11.79 5.49805 10.1054H4.74805H3.99805C3.99805 12.1777 4.78674 14.0675 6.07907 15.4883L6.63389 14.9836ZM6.63389 14.9836L6.0355 15.4357L9.71397 20.3039L10.3124 19.8518L10.9107 19.3996L7.23227 14.5315L6.63389 14.9836ZM10.3124 19.8518L9.70329 20.2894C10.8838 21.9323 13.3214 21.932 14.5014 20.2888L13.8922 19.8513L13.283 19.4138C12.7014 20.2238 11.5033 20.2239 10.9214 19.4141L10.3124 19.8518ZM13.8922 19.8513L14.5014 20.2888L18.0874 15.2952L17.4783 14.8578L16.8691 14.4203L13.283 19.4138L13.8922 19.8513ZM18.2677 13.7562L17.62 13.3781C17.4148 13.7296 17.1774 14.0603 16.9119 14.366L17.4783 14.8578L18.0446 15.3495C18.3709 14.9736 18.6628 14.567 18.9154 14.1343L18.2677 13.7562ZM18.2677 13.7562L18.8913 14.1729C18.9938 14.0195 19.0803 13.8604 19.1511 13.6974L18.4631 13.3987L17.7751 13.1C17.7403 13.1803 17.6969 13.2604 17.6441 13.3395L18.2677 13.7562Z" fill="#FF8740"/>
<circle cx="12.0035" cy="10.4969" r="2.73295" stroke="#FF8740" stroke-width="1.5"/>
</svg>
