<svg width="20" height="20" viewBox="0 0 20 20" fill="none" xmlns="http://www.w3.org/2000/svg">
<path d="M1.66675 8.74984C1.66675 12.6618 5.39771 15.8332 10.0001 15.8332C10.5708 15.8332 11.1282 15.7844 11.6667 15.6915V18.3332C13.0591 16.9707 15.4167 14.5832 16.8802 12.7477C17.7971 11.6099 18.3334 10.2331 18.3334 8.74984C18.3334 4.83782 14.6024 1.6665 10.0001 1.6665C5.39771 1.6665 1.66675 4.83782 1.66675 8.74984Z" stroke="#3A2C19" stroke-width="1.5" stroke-linejoin="round"/>
<path d="M5 7.0835V10.4168H5.83333M7.5 7.0835V10.4168M9.25 10.4168V7.0835L11.25 10.4168V7.0835M14.5833 7.0835H13V8.75016M13 8.75016V10.4168H14.5833M13 8.75016H14.2" stroke="#3A2C19" stroke-linecap="round" stroke-linejoin="round"/>
</svg>
